<?xml version="1.0" encoding="UTF-8"?>
<!-- Created with Inkscape (http://www.inkscape.org/) -->
<svg width="61.391mm" height="119.56mm" version="1.1" viewBox="0 0 61.391 119.56" xml:space="preserve" xmlns="http://www.w3.org/2000/svg"><g fill="none" stroke="#000"><g stroke-width=".26458"><rect x="25.004" y="82.76" width="14.917" height="15.25"/><rect x="43.984" y="101.9" width="14.917" height="15.25"/><rect x="25.004" y="101.9" width="14.917" height="15.25"/><rect x="6.0343" y="101.91" width="14.917" height="15.25"/></g><path d="m0.125 0.125h55.496c1.2778 0 1.4605 1.4669 2.0037 1.999 0.57361 0.56192 3.6411 0.12997 3.6411 1v16.98c-1.5328 0.10737-3.139 0.01987-4.2474 1.0779-0.89156 1.7375 0.10844 4.6065-0.89156 4.6065l-12.141-0.0044v15.25l11.141 0.0044c1.3333 1.1451 1.3333 2.3999 0 3.7645l-11.141-0.01857v15.25l17.28 0.01858v7.4854c-0.13899 1.1111-0.47798 1.586-2.139 1.5488-2.3479 0.60219-3 3.0372-0.40763 4.0372 1.3513 0.34632 2.2002 1.013 2.5466 2v13c-2.3408-0.04477-3.715 0.30702-4.1226 1.0554-0.89847 1.1306-0.85513 2.1869 0.13003 3.1688 1.2503 0.55475 1.5752 1.1639 1.8536 1.7758 0.10794 0.27485 0.0124 0.75563-0.28657 1.4424-0.96502 0.84704-2.4904 1.2045-1.0679 3.6437 1.9428 1.0108 3.4604 1.5978 3.4935 3.507v13.715c0 1.6615-1.3376 2.999-2.999 2.999h-58.142z" stroke-width=".25" style="paint-order:stroke fill markers"/><rect x="25.004" y="44.784" width="14.917" height="15.25" stroke-width=".26458"/><rect x="6.0343" y="44.789" width="14.917" height="15.25" stroke-width=".26458"/><g stroke-width=".25"><circle cx="41.974" cy="7.5341" r="1.5" style="paint-order:stroke fill markers"/><circle cx="41.974" cy="112.93" r="1.5" style="paint-order:stroke fill markers"/><circle cx="47.784" cy="86.704" r="2.5" style="paint-order:stroke fill markers"/><circle cx="41.974" cy="52.124" r="1.5" style="paint-order:stroke fill markers"/><rect x="17.874" y="64.923" width="10.417" height="7.0273" ry="3.5136" style="paint-order:stroke fill markers"/></g><g stroke-width=".26458"><rect x="43.964" y="3.32" width="14.917" height="15.25"/><rect x="24.984" y="3.32" width="14.917" height="15.25"/><rect x="6.0143" y="3.3244" width="14.917" height="15.25"/><rect x="25.004" y="25.784" width="14.917" height="15.25"/><rect x="6.0343" y="25.788" width="14.917" height="15.25"/></g></g></svg>
