<svg xmlns="http://www.w3.org/2000/svg" xml:space="preserve" width="232.029" height="451.88" viewBox="0 0 61.391 119.56"><g fill="none" stroke="#000"><path stroke-width=".265" d="M25.004 82.76h14.917v15.25H25.004zm18.98 19.14h14.917v15.25H43.984zm-18.98 0h14.917v15.25H25.004zm-18.97.01h14.917v15.25H6.034z"/><path stroke-width=".25" d="M.125.125h55.496c1.278 0 1.46 1.467 2.004 1.999.573.562 3.64.13 3.64 1v16.98c-1.532.107-3.138.02-4.247 1.078-.891 1.737.109 4.606-.891 4.606l-12.141-.004v15.25l11.14.004c1.334 1.145 1.334 2.4 0 3.765l-11.14-.019v15.25l17.28.019v7.485c-.14 1.111-.478 1.586-2.14 1.55-2.347.601-3 3.036-.407 4.036 1.352.347 2.2 1.013 2.547 2v13c-2.341-.044-3.715.307-4.123 1.056-.898 1.13-.855 2.187.13 3.169 1.25.554 1.575 1.163 1.854 1.775.108.275.012.756-.287 1.443-.965.847-2.49 1.204-1.068 3.643 1.943 1.011 3.46 1.598 3.494 3.507v13.715a2.992 2.992 0 0 1-3 3H.126z" style="paint-order:stroke fill markers"/><path stroke-width=".265" d="M25.004 44.784h14.917v15.25H25.004zm-18.97.005h14.917v15.25H6.034z"/><g stroke-width=".25"><circle cx="41.974" cy="7.534" r="1.5" style="paint-order:stroke fill markers"/><circle cx="41.974" cy="112.93" r="1.5" style="paint-order:stroke fill markers"/><circle cx="47.784" cy="86.704" r="2.5" style="paint-order:stroke fill markers"/><circle cx="41.974" cy="52.124" r="1.5" style="paint-order:stroke fill markers"/><rect width="10.417" height="7.027" x="17.874" y="64.923" ry="3.514" style="paint-order:stroke fill markers"/></g><path stroke-width=".265" d="M43.964 3.32h14.917v15.25H43.964zm-18.98 0h14.917v15.25H24.984zm-18.97.004h14.917v15.25H6.014zm18.99 22.46h14.917v15.25H25.004zm-18.97.004h14.917v15.25H6.034z"/></g></svg>