<?xml version="1.0" encoding="UTF-8" standalone="no"?>
<!-- Created with Inkscape (http://www.inkscape.org/) -->

<svg
   width="285.25mm"
   height="119.56mm"
   version="1.1"
   viewBox="0 0 285.25 119.56"
   xml:space="preserve"
   id="svg82"
   sodipodi:docname="g515_left_285.8mm_119mm_optimized.svg"
   inkscape:version="1.4.1 (93de688d07, 2025-03-30)"
   xmlns:inkscape="http://www.inkscape.org/namespaces/inkscape"
   xmlns:sodipodi="http://sodipodi.sourceforge.net/DTD/sodipodi-0.dtd"
   xmlns="http://www.w3.org/2000/svg"
   xmlns:svg="http://www.w3.org/2000/svg"><defs
     id="defs82" /><sodipodi:namedview
     id="namedview82"
     pagecolor="#ffffff"
     bordercolor="#000000"
     borderopacity="0.25"
     inkscape:showpageshadow="2"
     inkscape:pageopacity="0.0"
     inkscape:pagecheckerboard="0"
     inkscape:deskcolor="#d1d1d1"
     inkscape:document-units="mm"
     inkscape:zoom="0.50273152"
     inkscape:cx="539.05512"
     inkscape:cy="226.76119"
     inkscape:window-width="1234"
     inkscape:window-height="665"
     inkscape:window-x="0"
     inkscape:window-y="0"
     inkscape:window-maximized="1"
     inkscape:current-layer="svg82" /><g
     id="g83"><g
       fill="none"
       stroke="#000"
       id="g82"><g
         stroke-width=".26458"
         id="g6"><rect
           x="266.45"
           y="101.91"
           width="14.917"
           height="15.25"
           id="rect1" /><rect
           x="242.65"
           y="101.91"
           width="14.917"
           height="15.25"
           id="rect2" /><rect
           x="218.85"
           y="101.91"
           width="14.917"
           height="15.25"
           id="rect3" /><rect
           x="195.05"
           y="101.91"
           width="14.917"
           height="15.25"
           id="rect4" /><rect
           x="52.586"
           y="101.91"
           width="14.917"
           height="15.25"
           id="rect5" /><rect
           x="28.784"
           y="101.91"
           width="14.917"
           height="15.25"
           id="rect6" /></g><path
         d="m73.871 99.474v17.689l14.948-5.3e-4v-12.714h8.6393v9.9549h7.6042v-9.9549h18.476v12.714c6.5843-0.0383 12.584-0.0383 15.241 0v-12.714h18.476v9.9549h7.6042v-9.9549h8.6393v12.714l15.294 5.3e-4v-17.689z"
         stroke-width=".265"
         style="paint-order:stroke fill markers"
         id="path6" /><g
         stroke-width=".26458"
         id="g16"><rect
           x="216.38"
           y="82.766"
           width="14.917"
           height="15.25"
           id="rect7" /><rect
           x="197.41"
           y="82.766"
           width="14.917"
           height="15.25"
           id="rect8" /><rect
           x="178.37"
           y="82.766"
           width="14.917"
           height="15.25"
           id="rect9" /><rect
           x="159.4"
           y="82.766"
           width="14.917"
           height="15.25"
           id="rect10" /><rect
           x="140.36"
           y="82.766"
           width="14.917"
           height="15.25"
           id="rect11" /><rect
           x="121.38"
           y="82.766"
           width="14.917"
           height="15.25"
           id="rect12" /><rect
           x="102.41"
           y="82.766"
           width="14.917"
           height="15.25"
           id="rect13" /><rect
           x="83.377"
           y="82.766"
           width="14.917"
           height="15.25"
           id="rect14" /><rect
           x="64.403"
           y="82.766"
           width="14.917"
           height="15.25"
           id="rect15" /><rect
           x="45.428"
           y="82.77"
           width="14.917"
           height="15.25"
           id="rect16" /></g><rect
         x="5.1226"
         y="80.3"
         width="36.094"
         height="17.712"
         stroke-width=".265"
         id="rect17" /><path
         d="m5.7697 0.125h279.35v119.31h-282c-1.6615 0-2.999-1.3376-2.999-2.999l-0.00153-5.779h4.8601l0.090644 6.4367 14.827 0.073v-15.25l-13.719-4.2e-4c-1.3082-0.78867-0.25862-2.3822-1.3647-3.3517-1.1102-1.437-1.7444 0.34691-4.6921-1.7332v-50.305c0.004038-1.1502 3.3869-0.68759 4.4097-1.7517 0.89207-1.0374 0.22705-3.2157 1.7609-3.7281l11.422 1.28e-4v-15.25l-10.473-2.82e-4c-2.8627-1.3774-1.9012-2.7741-3.1209-4.6686-0.56598-1.6329-3.632-0.23342-3.9985-1.9108v-15.56c0-0.83058 2.9296-0.78675 3.4715-1.3288 0.5421-0.54225 1.3425-2.1994 2.1734-2.1994z"
         stroke-width=".25"
         style="paint-order:stroke fill markers"
         id="path17" /><g
         stroke-width=".26458"
         id="g28"><rect
           x="225.86"
           y="63.784"
           width="14.917"
           height="15.25"
           id="rect18" /><rect
           x="206.88"
           y="63.784"
           width="14.917"
           height="15.25"
           id="rect19" /><rect
           x="187.9"
           y="63.784"
           width="14.917"
           height="15.25"
           id="rect20" /><rect
           x="168.87"
           y="63.784"
           width="14.917"
           height="15.25"
           id="rect21" /><rect
           x="149.89"
           y="63.784"
           width="14.917"
           height="15.25"
           id="rect22" /><rect
           x="130.86"
           y="63.784"
           width="14.917"
           height="15.25"
           id="rect23" /><rect
           x="111.88"
           y="63.784"
           width="14.917"
           height="15.25"
           id="rect24" /><rect
           x="92.907"
           y="63.784"
           width="14.917"
           height="15.25"
           id="rect25" /><rect
           x="73.872"
           y="63.784"
           width="14.917"
           height="15.25"
           id="rect26" /><rect
           x="54.897"
           y="63.784"
           width="14.917"
           height="15.25"
           id="rect27" /><rect
           x="35.922"
           y="63.788"
           width="14.917"
           height="15.25"
           id="rect28" /></g><path
         d="m10.062 63.849v14.757h14.434v-6.7717h4.8121a3.0686 3.1181 0 0 0 0.53744 0.04806 3.0686 3.1181 0 0 0 0.53744-0.04806h0.16278v-0.03411a3.0686 3.1181 0 0 0 2.3683-3.036 3.0686 3.1181 0 0 0-2.3683-3.0355v-0.03152h-0.14779a3.0686 3.1181 0 0 0-0.55242-0.05064 3.0686 3.1181 0 0 0-0.5519 0.05064h-4.7976v-1.8485z"
         stroke-width=".25603"
         id="path28" /><path
         d="m263.09 44.791v16.864h-18.78v17.474h-1.911v3.7336h-7.276v14.739h15.102v-0.0016h27.42v-18.829h3.7817v-33.979z"
         stroke-width=".265"
         id="path29" /><g
         stroke-width=".26458"
         id="g41"><rect
           x="240.25"
           y="44.802"
           width="14.917"
           height="15.25"
           id="rect29" /><rect
           x="221.21"
           y="44.802"
           width="14.917"
           height="15.25"
           id="rect30" /><rect
           x="202.23"
           y="44.802"
           width="14.917"
           height="15.25"
           id="rect31" /><rect
           x="183.26"
           y="44.802"
           width="14.917"
           height="15.25"
           id="rect32" /><rect
           x="164.22"
           y="44.802"
           width="14.917"
           height="15.25"
           id="rect33" /><rect
           x="145.25"
           y="44.802"
           width="14.917"
           height="15.25"
           id="rect34" /><rect
           x="126.21"
           y="44.802"
           width="14.917"
           height="15.25"
           id="rect35" /><rect
           x="107.23"
           y="44.802"
           width="14.917"
           height="15.25"
           id="rect36" /><rect
           x="88.26"
           y="44.802"
           width="14.917"
           height="15.25"
           id="rect37" /><rect
           x="69.225"
           y="44.802"
           width="14.917"
           height="15.25"
           id="rect38" /><rect
           x="50.25"
           y="44.802"
           width="14.917"
           height="15.25"
           id="rect39" /><rect
           x="31.275"
           y="44.807"
           width="14.917"
           height="15.25"
           id="rect40" /><rect
           x="7.4864"
           y="44.807"
           width="14.917"
           height="15.25"
           id="rect41" /></g><g
         stroke-width=".25"
         id="g56"><circle
           cx="14.146"
           cy="22.356"
           r="1.5"
           style="paint-order:stroke fill markers"
           id="circle41" /><circle
           cx="57.765"
           cy="7.4207"
           r="1.5"
           style="paint-order:stroke fill markers"
           id="circle42" /><circle
           cx="143.11"
           cy="7.5347"
           r="1.5"
           style="paint-order:stroke fill markers"
           id="circle43" /><circle
           cx="204.73"
           cy="7.5341"
           r="2.5"
           style="paint-order:stroke fill markers"
           id="circle44" /><circle
           cx="228.55"
           cy="7.5341"
           r="1.5"
           style="paint-order:stroke fill markers"
           id="circle45" /><circle
           cx="24.232"
           cy="112.93"
           r="1.5"
           style="paint-order:stroke fill markers"
           id="circle46" /><circle
           cx="71.695"
           cy="112.93"
           r="1.5"
           style="paint-order:stroke fill markers"
           id="circle47" /><circle
           cx="119.32"
           cy="112.93"
           r="1.5"
           style="paint-order:stroke fill markers"
           id="circle48" /><circle
           cx="152.58"
           cy="112.93"
           r="1.5"
           style="paint-order:stroke fill markers"
           id="circle49" /><circle
           cx="214.25"
           cy="112.93"
           r="1.5"
           style="paint-order:stroke fill markers"
           id="circle50" /><circle
           cx="262.04"
           cy="112.93"
           r="1.5"
           style="paint-order:stroke fill markers"
           id="circle51" /><circle
           cx="237.96"
           cy="56.453"
           r="1.5"
           style="paint-order:stroke fill markers"
           id="circle52" /><circle
           cx="104.93"
           cy="56.453"
           r="1.5"
           style="paint-order:stroke fill markers"
           id="circle53" /><circle
           cx="24.232"
           cy="101.69"
           r="2.5"
           style="paint-order:stroke fill markers"
           id="circle54" /><circle
           cx="6.2973"
           cy="71.406"
           r="1.5"
           style="paint-order:stroke fill markers"
           id="circle55" /><circle
           cx="166.77"
           cy="68.679"
           r="1.5"
           style="paint-order:stroke fill markers"
           id="circle56" /></g><g
         stroke-width=".26458"
         id="g68"><rect
           x="268.52"
           y="3.32"
           width="14.917"
           height="15.25"
           id="rect56" /><rect
           x="249.48"
           y="3.32"
           width="14.917"
           height="15.25"
           id="rect57" /><rect
           x="230.51"
           y="3.32"
           width="14.917"
           height="15.25"
           id="rect58" /><rect
           x="211.53"
           y="3.3244"
           width="14.917"
           height="15.25"
           id="rect59" /><rect
           x="183.15"
           y="3.32"
           width="14.917"
           height="15.25"
           id="rect60" /><rect
           x="164.12"
           y="3.32"
           width="14.917"
           height="15.25"
           id="rect61" /><rect
           x="145.14"
           y="3.32"
           width="14.917"
           height="15.25"
           id="rect62" /><rect
           x="126.17"
           y="3.3244"
           width="14.917"
           height="15.25"
           id="rect63" /><rect
           x="97.789"
           y="3.32"
           width="14.917"
           height="15.25"
           id="rect64" /><rect
           x="78.754"
           y="3.32"
           width="14.917"
           height="15.25"
           id="rect65" /><rect
           x="59.779"
           y="3.32"
           width="14.917"
           height="15.25"
           id="rect66" /><rect
           x="40.804"
           y="3.3244"
           width="14.917"
           height="15.25"
           id="rect67" /><rect
           x="2.8536"
           y="3.3205"
           width="14.917"
           height="15.25"
           id="rect68" /></g><rect
         x="248.95"
         y="22.94"
         width="34.754"
         height="18.098"
         stroke-width=".265"
         id="rect69" /><g
         stroke-width=".26458"
         id="g81"><rect
           x="230.75"
           y="25.789"
           width="14.917"
           height="15.25"
           id="rect70" /><rect
           x="211.77"
           y="25.789"
           width="14.917"
           height="15.25"
           id="rect71" /><rect
           x="192.74"
           y="25.789"
           width="14.917"
           height="15.25"
           id="rect72" /><rect
           x="173.76"
           y="25.789"
           width="14.917"
           height="15.25"
           id="rect73" /><rect
           x="154.78"
           y="25.789"
           width="14.917"
           height="15.25"
           id="rect74" /><rect
           x="135.75"
           y="25.789"
           width="14.917"
           height="15.25"
           id="rect75" /><rect
           x="116.77"
           y="25.789"
           width="14.917"
           height="15.25"
           id="rect76" /><rect
           x="97.74"
           y="25.789"
           width="14.917"
           height="15.25"
           id="rect77" /><rect
           x="78.76"
           y="25.789"
           width="14.917"
           height="15.25"
           id="rect78" /><rect
           x="59.785"
           y="25.789"
           width="14.917"
           height="15.25"
           id="rect79" /><rect
           x="40.75"
           y="25.789"
           width="14.917"
           height="15.25"
           id="rect80" /><rect
           x="21.775"
           y="25.789"
           width="14.917"
           height="15.25"
           id="rect81" /></g></g></g></svg>
