<svg xmlns="http://www.w3.org/2000/svg" xml:space="preserve" width="1078.11" height="451.88" viewBox="0 0 285.25 119.56"><g fill="none" stroke="#000"><path stroke-width=".265" d="M266.45 101.91h14.917v15.25H266.45zm-23.8 0h14.917v15.25H242.65zm-23.8 0h14.917v15.25H218.85zm-23.8 0h14.917v15.25H195.05zm-142.464 0h14.917v15.25H52.586zm-23.802 0h14.917v15.25H28.784z"/><path stroke-width=".265" d="M73.871 99.474v17.689h14.948v-12.715h8.64v9.955h7.603v-9.955h18.477v12.714c6.584-.038 12.583-.038 15.24 0v-12.714h18.476v9.955h7.605v-9.955h8.639v12.714l15.294.001V99.474z" style="paint-order:stroke fill markers"/><path stroke-width=".265" d="M216.38 82.766h14.917v15.25H216.38zm-18.97 0h14.917v15.25H197.41zm-19.04 0h14.917v15.25H178.37zm-18.97 0h14.917v15.25H159.4zm-19.04 0h14.917v15.25H140.36zm-18.98 0h14.917v15.25H121.38zm-18.97 0h14.917v15.25H102.41zm-19.033 0h14.917v15.25H83.377zm-18.974 0H79.32v15.25H64.403zm-18.975.004h14.917v15.25H45.428zM5.123 80.3h36.094v17.712H5.123z"/><path stroke-width=".25" d="M5.77.125h279.35v119.31h-282a2.992 2.992 0 0 1-3-2.999v-5.779h4.86l.09 6.437 14.827.073v-15.25H6.177c-1.307-.79-.258-2.383-1.364-3.352-1.11-1.437-1.744.346-4.692-1.734V46.526c.004-1.15 3.387-.687 4.41-1.751.892-1.038.227-3.216 1.76-3.728h11.423v-15.25H7.24c-2.863-1.378-1.901-2.775-3.121-4.67-.566-1.632-3.632-.233-3.999-1.91V3.657c0-.83 2.93-.787 3.472-1.329.542-.542 1.342-2.2 2.173-2.2z" style="paint-order:stroke fill markers"/><path stroke-width=".265" d="M225.86 63.784h14.917v15.25H225.86zm-18.98 0h14.917v15.25H206.88zm-18.98 0h14.917v15.25H187.9zm-19.03 0h14.917v15.25H168.87zm-18.98 0h14.917v15.25H149.89zm-19.03 0h14.917v15.25H130.86zm-18.98 0h14.917v15.25H111.88zm-18.973 0h14.917v15.25H92.907zm-19.035 0h14.917v15.25H73.872zm-18.975 0h14.917v15.25H54.897zm-18.975.004h14.917v15.25H35.922z"/><path stroke-width=".256" d="M10.062 63.849v14.757h14.434v-6.772h4.812a3.069 3.118 0 0 0 .538.048 3.069 3.118 0 0 0 .537-.048h.163V71.8a3.069 3.118 0 0 0 2.368-3.036 3.069 3.118 0 0 0-2.368-3.035v-.032h-.148a3.069 3.118 0 0 0-.552-.05 3.069 3.118 0 0 0-.552.05h-4.798V63.85z"/><path stroke-width=".265" d="M263.09 44.791v16.864h-18.78v17.474h-1.911v3.734h-7.276v14.739h15.102V97.6h27.42V78.771h3.782V44.792z"/><path stroke-width=".265" d="M240.25 44.802h14.917v15.25H240.25zm-19.04 0h14.917v15.25H221.21zm-18.98 0h14.917v15.25H202.23zm-18.97 0h14.917v15.25H183.26zm-19.04 0h14.917v15.25H164.22zm-18.97 0h14.917v15.25H145.25zm-19.04 0h14.917v15.25H126.21zm-18.98 0h14.917v15.25H107.23zm-18.97 0h14.917v15.25H88.26zm-19.035 0h14.917v15.25H69.225zm-18.975 0h14.917v15.25H50.25zm-18.975.005h14.917v15.25H31.275zm-23.789 0h14.917v15.25H7.486z"/><g stroke-width=".25"><circle cx="14.146" cy="22.356" r="1.5" style="paint-order:stroke fill markers"/><circle cx="57.765" cy="7.421" r="1.5" style="paint-order:stroke fill markers"/><circle cx="143.11" cy="7.535" r="1.5" style="paint-order:stroke fill markers"/><circle cx="204.73" cy="7.534" r="2.5" style="paint-order:stroke fill markers"/><circle cx="228.55" cy="7.534" r="1.5" style="paint-order:stroke fill markers"/><circle cx="24.232" cy="112.93" r="1.5" style="paint-order:stroke fill markers"/><circle cx="71.695" cy="112.93" r="1.5" style="paint-order:stroke fill markers"/><circle cx="119.32" cy="112.93" r="1.5" style="paint-order:stroke fill markers"/><circle cx="152.58" cy="112.93" r="1.5" style="paint-order:stroke fill markers"/><circle cx="214.25" cy="112.93" r="1.5" style="paint-order:stroke fill markers"/><circle cx="262.04" cy="112.93" r="1.5" style="paint-order:stroke fill markers"/><circle cx="237.96" cy="56.453" r="1.5" style="paint-order:stroke fill markers"/><circle cx="104.93" cy="56.453" r="1.5" style="paint-order:stroke fill markers"/><circle cx="24.232" cy="101.69" r="2.5" style="paint-order:stroke fill markers"/><circle cx="6.297" cy="71.406" r="1.5" style="paint-order:stroke fill markers"/><circle cx="166.77" cy="68.679" r="1.5" style="paint-order:stroke fill markers"/></g><path stroke-width=".265" d="M268.52 3.32h14.917v15.25H268.52zm-19.04 0h14.917v15.25H249.48zm-18.97 0h14.917v15.25H230.51zm-18.98.004h14.917v15.25H211.53zm-28.38-.004h14.917v15.25H183.15zm-19.03 0h14.917v15.25H164.12zm-18.98 0h14.917v15.25H145.14zm-18.97.004h14.917v15.25H126.17zM97.789 3.32h14.917v15.25H97.789zm-19.035 0h14.917v15.25H78.754zm-18.975 0h14.917v15.25H59.779zm-18.975.004h14.917v15.25H40.804zm-37.95-.003h14.917v15.25H2.854zM248.95 22.94h34.754v18.098H248.95zm-18.2 2.849h14.917v15.25H230.75zm-18.98 0h14.917v15.25H211.77zm-19.03 0h14.917v15.25H192.74zm-18.98 0h14.917v15.25H173.76zm-18.98 0h14.917v15.25H154.78zm-19.03 0h14.917v15.25H135.75zm-18.98 0h14.917v15.25H116.77zm-19.03 0h14.917v15.25H97.74zm-18.98 0h14.917v15.25H78.76zm-18.975 0h14.917v15.25H59.785zm-19.035 0h14.917v15.25H40.75zm-18.975 0h14.917v15.25H21.775z"/></g></svg>